<svg xmlns="http://www.w3.org/2000/svg" xmlns:xlink="http://www.w3.org/1999/xlink" viewBox="0 0 208.67 209.17"><defs><style>.cls-1{fill:none;}.cls-2{fill:#bd80cc;}.cls-3{fill:#fff;}.cls-4{clip-path:url(#clip-path);}.cls-5{fill:#ffc7ad;}.cls-6{fill:#864242;}.cls-7{fill:#f35b74;}.cls-8{fill:#f0bba3;}.cls-9{fill:#26a7de;}.cls-10{fill:#323232;}</style><clipPath id="clip-path"><rect class="cls-1" width="208.67" height="208.67" rx="104.33"/></clipPath></defs><title>Asset 2img</title><g id="Layer_2" data-name="Layer 2"><g id="Objects"><circle class="cls-2" cx="104.33" cy="104.33" r="94.33" transform="translate(-43.22 104.33) rotate(-45)"/><path class="cls-3" d="M104.33,0h0A104.33,104.33,0,0,0,0,104.33H0A104.33,104.33,0,0,0,104.33,208.67h0A104.33,104.33,0,0,0,208.67,104.33h0A104.33,104.33,0,0,0,104.33,0ZM10,104.33a94.34,94.34,0,1,1,94.33,94.34A94.44,94.44,0,0,1,10,104.33Z"/><g class="cls-4"><path class="cls-1" d="M138.17,82.16c.21.63.4,1.24.58,1.85,0,0,0-.05,0-.07A10.93,10.93,0,0,0,138.17,82.16Z"/><path class="cls-5" d="M142.62,96.9c0,.16,0,.3,0,.46-1.39,1.31-2.86,4.3-4,5.85.94-5.43,2-11.11.17-19.2-.18-.61-.37-1.22-.58-1.85-2-5-6.83-6.24-12-7.91-7.07-2.25-14.41-.57-21.49-2.35-4.44-1.12-7.93-5.06-12.36-5.36-20.37-1.37-24.23,20.69-21.74,36.67a52.81,52.81,0,0,1-4-6.12C62,94.73,57,98.58,57.86,105.33c2.07,15.5,9.84,12.84,9.84,12.84,13.33,33.33,36.66,33.16,36.66,33.16s23.34.17,36.67-33.16c0,0,7.77,2.66,9.83-12.84C151.74,98.79,147,95,142.62,96.9Z"/><path class="cls-6" d="M144.56,69.88c.87,5.7-.68-4.76,0,0Z"/><path class="cls-6" d="M92.28,66.54c4.43.3,7.92,4.24,12.36,5.36,7.08,1.78,14.42.1,21.49,2.35,5.21,1.67,10,2.88,12,7.91a10.93,10.93,0,0,1,.56,1.78s0,0,0,.07c1.84,8.09.77,13.77-.17,19.2,1.14-1.55,2.61-4.54,4-5.85,0-.16,0-.3,0-.46.79-9.71,3.52-16.6,1.94-27C142.68,56.7,137.67,48.62,125.44,43,126.05,29.58,111,21.57,99.16,24c-7,1.41-11.09,5.58-15,11.12-2.85,4-2.5,4.44-5.92,7.38-2.6,2.24-5.61,3.57-8.07,6.19-13,13.9-12.15,33.25-3.64,48.45a52.81,52.81,0,0,0,4,6.12C68.05,87.23,71.91,65.17,92.28,66.54Z"/><path class="cls-7" d="M113,175.52l-5.5,4.15,2.36,29.45h52.55s-6.37-34.62-12.25-38.5c-2.94-1.94-15.8-5.21-27.17-7.82l-6.18,16.87Z"/><path class="cls-7" d="M104.36,179.15h0Z"/><path class="cls-7" d="M95.77,175.52,92,179.67l-6.22-17c-11.47,2.63-24.61,6-27.59,7.92-5.88,3.88-12.25,38.5-12.25,38.5H99l2.27-29.45Z"/><path class="cls-8" d="M104.36,166.17l10.55-10.55v-7a28.24,28.24,0,0,1-10.55,2.71,28.44,28.44,0,0,1-10.91-2.86l-.16,7h0Z"/><path class="cls-9" d="M107.45,179.67l5.5-4.15-8.59-9.35-8.59,9.35,5.51,4.15L99,209.12v0h10.8v0Zm-3.09-.52h0Z"/><polygon class="cls-3" points="95.77 175.52 104.36 166.16 93.29 155.48 93.29 155.48 85.72 162.6 85.75 162.7 91.97 179.66 95.77 175.52"/><polygon class="cls-3" points="104.36 166.16 112.95 175.52 116.76 179.66 122.94 162.8 123.01 162.6 114.91 155.62 104.36 166.16"/><path class="cls-10" d="M114.26,96.33c-3.48,1.55-7.2,4.41-9.57,4.41s-6.37-2.86-9.85-4.41c-4.32-2-17.69-5-27.12-1.26v2.41s1.76.62,2.23,3.42.88,7.3,2.19,10.2,2.67,5.26,10.08,6.7,11.21-.27,14.17-3.63,5.14-8.26,5.91-9.07a3,3,0,0,1,4.79,0c.77.81,2.94,5.71,5.9,9.07s6.71,5,14.13,3.62,8.66-3.7,10-6.71,1.54-7.38,2-10.18,1.93-3.42,1.93-3.42V95.07C132.71,91.38,118.58,94.38,114.26,96.33Zm-16.6,13.24c-1.24,2.19-3.61,6.51-8,7.2a21,21,0,0,1-12.76-2.2c-3.31-1.76-3.81-5.25-4.29-8.17s-.47-8.59,1.13-9.9,8-1.15,12-.71c3.67.42,9.94,1.88,12.72,5S98.63,107.87,97.66,109.57Zm39.13-3.18c-.47,2.91-1,6.4-4.29,8.16a21,21,0,0,1-12.76,2.21c-4.38-.68-6.75-5-8-7.19-1-1.7-3.55-5.7-.77-8.8s9.06-4.57,12.73-5c4-.45,10.36-.6,12,.71S137.26,103.48,136.79,106.39Z"/><path class="cls-6" d="M142.32,144.17a29.94,29.94,0,0,1-6.74-14.93A51.68,51.68,0,0,1,122.64,144h0c18.06,20.48-5.66,65.14-5.66,65.14s16.21,0,35.21,0C156.66,194.2,157.1,161.6,142.32,144.17Z"/></g></g></g></svg>