<svg xmlns="http://www.w3.org/2000/svg" xmlns:xlink="http://www.w3.org/1999/xlink" viewBox="0 0 208.67 208.67"><defs><style>.cls-1{fill:none;}.cls-2{fill:#50b4de;}.cls-3{fill:#fff;}.cls-4{clip-path:url(#clip-path);}.cls-5{fill:#e3e3e3;}.cls-6{fill:#db4f5d;}.cls-7{fill:#edc0aa;}.cls-8{fill:#e0a489;}.cls-9{fill:#282828;}.cls-10{fill:#3b3b3d;}.cls-11{fill:#efeff0;}.cls-12{fill:#ced0d1;}.cls-13{fill:#d1515e;}.cls-14{fill:#f2c4ae;}.cls-15{fill:#864242;}.cls-16{fill:#323232;}</style><clipPath id="clip-path"><rect class="cls-1" width="208.67" height="208.67" rx="104.33"/></clipPath></defs><title>Asset 4img</title><g id="Layer_2" data-name="Layer 2"><g id="Objects"><circle class="cls-2" cx="104.33" cy="104.33" r="92.33" transform="translate(-43.22 104.33) rotate(-45)"/><path class="cls-3" d="M104.33,0h0A104.33,104.33,0,0,0,0,104.33H0A104.33,104.33,0,0,0,104.33,208.67h0A104.33,104.33,0,0,0,208.67,104.33h0A104.33,104.33,0,0,0,104.33,0ZM12,104.33a92.34,92.34,0,1,1,92.33,92.34A92.44,92.44,0,0,1,12,104.33Z"/><g class="cls-4"><polygon class="cls-1" points="97.32 181.67 96.59 182.74 96.59 182.74 97.32 181.67 97.32 181.67"/><polygon class="cls-1" points="83.33 163.38 81.03 161.08 83.33 163.38 83.33 163.38"/><polygon class="cls-1" points="111.7 182.34 111.98 182.74 111.98 182.74 111.7 182.34 111.7 182.34"/><polygon class="cls-1" points="128.53 182.74 133.2 168.41 128.53 182.74 128.53 182.74"/><polygon class="cls-1" points="125.24 163.38 127.54 161.08 125.24 163.38 125.24 163.38"/><polygon class="cls-1" points="80.04 182.74 80.04 182.74 75.36 168.41 80.04 182.74"/><polygon class="cls-5" points="128.53 182.74 123.2 199.08 111.98 182.74 111.98 182.74 114.74 186.77 107.94 196.08 110.44 208.25 120.2 208.25 128.53 182.74 128.53 182.74"/><path class="cls-5" d="M93.92,186.62l2.67-3.88h0L85.37,199.08,80,182.74h0l8.32,25.51h8.33l3.5-12.17Z"/><path class="cls-6" d="M104.11,195.16a8.88,8.88,0,0,0-3.92.92l-3.5,12.17h13.75l-2.5-12.17A8.67,8.67,0,0,0,104.11,195.16Z"/><path class="cls-7" d="M83.33,163.38h0l15.74,15.74h10.42l15.75-15.75h0l-.3-2.29-2.4-17.76h0l1.32,9.66c-2.61,3.41-15,10.34-20.27,10.39-5.1.05-18.27-8.88-19.19-9.51l-.8,7.21h0Z"/><polygon class="cls-7" points="111.7 182.34 109.5 179.12 111.7 182.34 111.7 182.34"/><polygon class="cls-7" points="99.07 179.12 97.32 181.67 97.32 181.67 99.07 179.12"/><polygon class="cls-7" points="96.36 145.49 85.19 146.41 84.58 152.05 85.28 147.16 96.36 145.49"/><path class="cls-8" d="M123.84,153l-1.32-9.66-.24-1.75-25.92,3.91-11.08,1.67-.7,4.89-.26,1.78.06,0c.92.63,14.09,9.56,19.19,9.51C108.86,163.33,121.23,156.4,123.84,153Z"/><path class="cls-9" d="M75.86,198.41l-15-6.5L68,170.4,30.69,181.25s-7.87,7.87-18.5,27h55.5l-2.83-6.67Z"/><polygon class="cls-10" points="75.36 168.41 81.03 161.08 68.69 168.41 68.03 170.4 60.86 191.91 75.86 198.41 64.86 201.58 67.69 208.25 84.32 208.25 88.36 208.25 80.04 182.74 75.36 168.41"/><polygon class="cls-11" points="80.04 182.74 85.37 199.08 96.59 182.74 97.32 181.67 99.07 179.12 83.33 163.38 81.03 161.08 75.36 168.41 80.04 182.74"/><polygon class="cls-12" points="83.33 163.38 83.58 161.08 83.58 161.08 81.03 161.08 83.33 163.38 83.33 163.38"/><path class="cls-9" d="M177.87,181.25,140.53,170.4l7.17,21.51-15,6.5,11,3.17-2.83,6.67h55.5C185.74,189.12,177.87,181.25,177.87,181.25Z"/><polygon class="cls-10" points="132.7 198.41 147.7 191.91 140.53 170.4 139.87 168.41 127.54 161.08 133.2 168.41 128.53 182.74 120.2 208.25 124.25 208.25 140.87 208.25 143.7 201.58 132.7 198.41"/><polygon class="cls-11" points="109.5 179.12 111.7 182.34 111.98 182.74 123.2 199.08 128.53 182.74 133.2 168.41 127.54 161.08 125.24 163.38 109.5 179.12"/><polygon class="cls-12" points="125.24 163.38 127.54 161.08 124.93 161.08 124.93 161.09 125.23 163.38 125.24 163.38"/><path class="cls-13" d="M109.49,179.12H99.07l-1.75,2.55-.73,1.07-2.67,3.88,6.27,9.46a8.88,8.88,0,0,1,3.92-.92,8.67,8.67,0,0,1,3.83.92l6.8-9.31-2.76-4-.28-.4Z"/><path class="cls-14" d="M137.32,96.75s2.37-46.67-35.46-46.5C64,50.08,66.4,96.75,66.4,96.75c-4.37-.25-9.25-.38-8.25,11.5s12,13,12,13c.67,12,8.34,23.66,14,28.66s17.67,5,17.67,5,12,0,17.67-5,13.33-16.66,14-28.66c0,0,11-1.13,12-13S141.69,96.5,137.32,96.75Z"/><path class="cls-15" d="M61.81,66c5.66-19.34,40.76-33.15,62.43-17.68.67-3,2.45-4.11,6.45-5.07-2.08,2.3-3.17,3.41-2.75,5.29,1.74-2.16,4.17-1.75,6.91-1.46-3,.61-4.7,2.21-5.41,4.12,5.11.79,17.83,9.63,15.53,23.37-3.87,23.08-4.5,22.18-4.5,22.18s-3.5,2.75-5,10.25c0,0-1.75-21.25-2.5-24.5s-7.25-13-7.25-13S104.35,86.33,87.1,83.83c0,0,5.84-3.92,2.55-9.71-2.19,3.06-4.94,9.29-12.55,9,2.71-2,3-4.33,2-7.42-1.62,3.25-8.3,7.37-8.88,6.84l-1.5,22s-1.81-8-6.91-7.45C61.81,97.05,59.24,74.8,61.81,66Z"/><path class="cls-16" d="M108.3,96.6c-2,.67-4.43,1.62-6.47,1.62s-4.43-1-6.46-1.62c-5.08-1.68-17.36-2.8-26.08-.71a2.36,2.36,0,0,0-1.81,2.43l.06,1.14a2.39,2.39,0,0,0,1.31,2,2,2,0,0,1,.9,1.21c.52,1.75,1.74,8.95,4,11.76,2.76,3.5,8.71,3.63,12.74,3.46,5.41-.24,9-2.64,10.47-6.72s2.37-7.56,3.34-8.67a1.87,1.87,0,0,1,1.57-.64,1.9,1.9,0,0,1,1.58.64c1,1.11,1.82,4.6,3.33,8.67s5.06,6.48,10.48,6.72c4,.17,10,0,12.74-3.46,2.22-2.81,3.44-10,4-11.76a2,2,0,0,1,.9-1.21,2.41,2.41,0,0,0,1.31-2l.06-1.14a2.37,2.37,0,0,0-1.81-2.43C125.66,93.8,113.38,94.92,108.3,96.6ZM94.5,111.15c-1.46,2.74-3.9,4.14-7.57,4.6s-8.05-.25-10.26-1.57c-2-1.16-2.89-4.83-3.36-7s-1.28-7,1-8.56,8-1.69,11.76-1.46c2.85.18,9,.94,10.19,3.15S95.68,108.94,94.5,111.15Zm35.86-4c-.47,2.21-1.41,5.88-3.36,7-2.21,1.32-6.6,2-10.26,1.57s-6.12-1.86-7.57-4.6c-1.18-2.21-2.91-8.67-1.75-10.88s7.34-3,10.19-3.15c3.78-.23,9.49-.11,11.76,1.46S130.82,104.92,130.36,107.14Z"/></g></g></g></svg>