<svg xmlns="http://www.w3.org/2000/svg" xmlns:xlink="http://www.w3.org/1999/xlink" viewBox="0 0 208.67 209.25"><defs><style>.cls-1{fill:none;}.cls-2{fill:#69ded5;}.cls-3{fill:#fff;}.cls-4{clip-path:url(#clip-path);}.cls-5{fill:#bc1e2d;}.cls-6{fill:#ffceb7;}.cls-7{fill:#895a59;}.cls-8{fill:#ced0d1;}.cls-9{fill:#da251d;}.cls-10{fill:#c4211a;}.cls-11{fill:#4b3118;}.cls-12{fill:#dbb19d;}</style><clipPath id="clip-path" transform="translate(-0.25)"><rect class="cls-1" y="0.08" width="208.67" height="208.67" rx="104.33"/></clipPath></defs><title>Asset 1img</title><g id="Layer_2" data-name="Layer 2"><g id="Objects"><circle class="cls-2" cx="104.58" cy="104.33" r="94.33" transform="translate(-43.39 104.51) rotate(-45)"/><path class="cls-3" d="M104.58,0h0A104.33,104.33,0,0,0,.25,104.33h0A104.33,104.33,0,0,0,104.58,208.67h0A104.33,104.33,0,0,0,208.92,104.33h0A104.33,104.33,0,0,0,104.58,0ZM10.25,104.33a94.34,94.34,0,1,1,94.33,94.34A94.44,94.44,0,0,1,10.25,104.33Z" transform="translate(-0.25)"/><g class="cls-4"><path class="cls-1" d="M75.32,161.85a3.45,3.45,0,0,0-1.62.51C74.22,162.18,74.77,162,75.32,161.85Z" transform="translate(-0.25)"/><path class="cls-1" d="M66.93,97.86a8.38,8.38,0,0,1,.74.62c0-.27-.06-.61-.08-1-.07.26-.13.51-.19.76C67.24,98.12,67.09,98,66.93,97.86Z" transform="translate(-0.25)"/><polygon class="cls-1" points="85.25 162.27 84.8 162.69 85.25 162.27 85.25 162.27"/><path class="cls-5" d="M58.35,99.24c.11-.18.23-.34.35-.5l0,0a6.26,6.26,0,0,1,1.2-1.16l.18-.12.34-.22.26-.14.32-.15.37-.14.26-.08a4.42,4.42,0,0,1,.63-.14l.23,0c.16,0,.31,0,.47,0h.25l.49,0,.22,0a4.49,4.49,0,0,1,.71.15l2.27,1.16c.16.12.31.26.47.39.06-.25.12-.5.19-.76h0a1.21,1.21,0,0,0,0-.18c.09-.33.17-.66.27-1l.12-.44.3-1c.05-.17.11-.33.16-.5.11-.33.22-.66.34-1l.19-.54c.12-.33.24-.66.37-1l.24-.6c.13-.33.27-.66.41-1l.28-.66c.15-.32.29-.64.44-1s.23-.47.34-.71.31-.64.48-1,.26-.51.39-.76.33-.64.51-1l.46-.82c.17-.31.35-.62.54-.94l.52-.87c.19-.31.38-.62.58-.93s.39-.62.6-.93.39-.61.6-.91l.68-1,.63-.9.78-1L78.5,76c.29-.38.6-.77.91-1.15l.63-.8,1.11-1.33.55-.65c.58-.67,1.17-1.34,1.79-2,0,0-.92,22.25,33,30.25.61.14,1.19.31,1.77.49l.4.13c.56.19,1.11.38,1.63.6l.11.06a15.25,15.25,0,0,1,1.41.67l.35.18c.47.26.93.52,1.37.81l.17.12c.39.26.76.53,1.13.82l.29.23c.39.32.77.65,1.13,1l.19.19c.31.3.61.62.9,1,.08.09.16.17.23.26.33.38.63.77.93,1.16l.17.25c.25.35.49.71.71,1.07l.18.29c.26.43.5.86.73,1.31l.15.32c.2.38.38.77.55,1.17l.13.3c.19.47.37.95.54,1.43.05.12.09.25.13.38.14.42.27.84.4,1.27l.09.3c.14.5.26,1,.38,1.53l.09.44c.1.44.19.9.27,1.35,0,.1,0,.2,0,.3.09.53.17,1.06.24,1.6,0,.16,0,.33.05.49.06.48.11,1,.15,1.45a2.28,2.28,0,0,1,0,.26c.05.55.08,1.1.11,1.66,0,.18,0,.36,0,.54,0,.51,0,1,0,1.55v.33c0,.52,0,1,0,1.57,0,.19,0,.37,0,.56,0,.56,0,1.12-.07,1.68h0a111.37,111.37,0,0,1-3.72,22c16.47-21,21.36-36.4,21.47-49.66C151.91,38.42,103.74,42,103.74,42s-42.83-3.75-46.44,59.9a7.53,7.53,0,0,1,1-2.58Z" transform="translate(-0.25)"/><path class="cls-5" d="M103.74,151.41h0Z" transform="translate(-0.25)"/><path class="cls-5" d="M103.64,151.41h0Z" transform="translate(-0.25)"/><path class="cls-5" d="M103.47,151.41h0Z" transform="translate(-0.25)"/><path class="cls-5" d="M103.19,151.4h0Z" transform="translate(-0.25)"/><path class="cls-5" d="M104.47,151.38h0Z" transform="translate(-0.25)"/><path class="cls-5" d="M104.86,151.34h0Z" transform="translate(-0.25)"/><path class="cls-5" d="M102.81,151.37h0Z" transform="translate(-0.25)"/><path class="cls-5" d="M104.13,151.4h0Z" transform="translate(-0.25)"/><path class="cls-5" d="M103.87,151.41h0Z" transform="translate(-0.25)"/><path class="cls-5" d="M102.34,151.32l.2,0Z" transform="translate(-0.25)"/><path class="cls-5" d="M96,149.86l.42.14Z" transform="translate(-0.25)"/><path class="cls-5" d="M94.91,149.44l.45.17Z" transform="translate(-0.25)"/><path class="cls-5" d="M97.11,150.21l.38.11Z" transform="translate(-0.25)"/><path class="cls-5" d="M93.74,149l.46.2Z" transform="translate(-0.25)"/><path class="cls-5" d="M101.79,151.26l.2,0Z" transform="translate(-0.25)"/><path class="cls-5" d="M99.06,150.74l.24.06Z" transform="translate(-0.25)"/><path class="cls-5" d="M105.39,151.28h0Z" transform="translate(-0.25)"/><path class="cls-5" d="M101.22,151.17l.14,0Z" transform="translate(-0.25)"/><path class="cls-5" d="M98.12,150.5l.33.09Z" transform="translate(-0.25)"/><path class="cls-5" d="M113.13,149.18l.3-.12Z" transform="translate(-0.25)"/><path class="cls-5" d="M111.14,149.92l.12,0Z" transform="translate(-0.25)"/><path class="cls-5" d="M112.1,149.58l.29-.11Z" transform="translate(-0.25)"/><path class="cls-5" d="M106,151.19l.14,0Z" transform="translate(-0.25)"/><path class="cls-5" d="M75.32,161.85a85.51,85.51,0,0,1,13.27-2.49l-3.09,2.91h0l7.12-6.71.22.21.07-3.27h0l.08-3.85h0c-7.88-3.57-18.49-11.73-26-30.4,0,0-7.77,2.66-9.83-12.83,0-.15,0-.28,0-.42,0,1.08-.07,2.19-.09,3.31,0,0,0,32.6,16.61,54.05h0A3.45,3.45,0,0,1,75.32,161.85Z" transform="translate(-0.25)"/><path class="cls-5" d="M131.85,133.93l-.12.14c-.28.39-.57.77-.86,1.14l-.3.38c-.37.47-.74.93-1.12,1.37-.17.21-.35.41-.53.61s-.39.45-.58.66l-.72.78-.39.4c-.26.28-.53.54-.79.81l-.29.28-.86.82-.07.06h0a40.81,40.81,0,0,1-10.75,7.22h0v7.25l.3-.29,7.57,7.13-.07.19h.06c0-.07.07-.14.1-.2l-3.54-3.33a88.39,88.39,0,0,1,12.59,2.29c-4.91-11.16-.91-21.11.41-27.79l0,.06Z" transform="translate(-0.25)"/><path class="cls-5" d="M107.37,151l.17,0Z" transform="translate(-0.25)"/><path class="cls-5" d="M106.64,151.09l.21,0Z" transform="translate(-0.25)"/><path class="cls-5" d="M110,150.29l.24-.07Z" transform="translate(-0.25)"/><path class="cls-5" d="M109.09,150.54l.26-.07Z" transform="translate(-0.25)"/><path class="cls-5" d="M108.29,150.75l.16,0Z" transform="translate(-0.25)"/><path class="cls-6" d="M67,118.25c7.47,18.67,18.08,26.83,26,30.4l.75.32.46.2.71.27.45.17.68.25.42.14.65.21.38.11.63.18.33.09.61.15.24.06c.71.16,1.36.28,1.92.37l.14,0,.43.06.2,0,.35,0,.2,0,.27,0H103l.2,0h1l.31,0h.1l.29,0H105l.39-.05h.09l.55-.08.14,0,.47-.08.21,0,.52-.1.17,0,.75-.17.16,0,.64-.17.26-.07.64-.18.24-.07.91-.3.12,0,.84-.3.29-.11.74-.29.3-.12c.34-.15.69-.29,1-.46a40.81,40.81,0,0,0,10.75-7.22h0l.07-.06.86-.82.29-.28c.26-.27.53-.53.79-.81l.39-.4.72-.78c.19-.21.39-.43.58-.66s.36-.4.53-.61c.38-.44.75-.9,1.12-1.37l.3-.38c.29-.37.58-.75.86-1.14l.12-.14h0l0-.06c.58-.79,1.15-1.61,1.72-2.48h0c0-.56,0-1.12.07-1.68,0-.19,0-.37,0-.56,0-.53,0-1,0-1.57v-.33c0-.52,0-1,0-1.55,0-.18,0-.36,0-.54,0-.56-.06-1.11-.11-1.66a2.28,2.28,0,0,0,0-.26c0-.49-.09-1-.15-1.45,0-.16,0-.33-.05-.49-.07-.54-.15-1.07-.24-1.6,0-.1,0-.2,0-.3-.08-.45-.17-.91-.27-1.35l-.09-.44c-.12-.52-.24-1-.38-1.53l-.09-.3c-.13-.43-.26-.85-.4-1.27,0-.13-.08-.26-.13-.38-.17-.48-.35-1-.54-1.43l-.13-.3c-.17-.4-.35-.79-.55-1.17l-.15-.32c-.23-.45-.47-.88-.73-1.31l-.18-.29c-.22-.36-.46-.72-.71-1.07l-.17-.25c-.3-.39-.6-.78-.93-1.16-.07-.09-.15-.17-.23-.26-.29-.33-.59-.65-.9-1l-.19-.19c-.36-.34-.74-.67-1.13-1l-.29-.23c-.37-.29-.74-.56-1.13-.82l-.17-.12c-.44-.29-.9-.55-1.37-.81l-.35-.18a15.25,15.25,0,0,0-1.41-.67l-.11-.06c-.52-.22-1.07-.41-1.63-.6l-.4-.13c-.58-.18-1.16-.35-1.77-.49-33.92-8-33-30.25-33-30.25-.62.68-1.21,1.35-1.79,2l-.55.65L80,74.06l-.63.8c-.31.38-.62.77-.91,1.15l-.64.86-.78,1-.63.9-.68,1c-.21.3-.4.61-.6.91s-.41.62-.6.93-.39.62-.58.93l-.52.87c-.19.32-.37.63-.54.94l-.46.82c-.18.32-.34.64-.51,1s-.27.51-.39.76-.32.65-.48,1-.23.47-.34.71-.29.65-.44,1l-.28.66c-.14.33-.28.66-.41,1l-.24.6c-.13.33-.25.66-.37,1l-.19.54c-.12.34-.23.67-.34,1,0,.17-.11.33-.16.5l-.3,1-.12.44c-.1.34-.18.67-.27,1a1.21,1.21,0,0,1,0,.18h0c0,.38,0,.72.08,1a8.38,8.38,0,0,0-.74-.62L64.66,96.7a4.49,4.49,0,0,0-.71-.15l-.22,0-.49,0H63c-.16,0-.31,0-.47,0l-.23,0a4.42,4.42,0,0,0-.63.14l-.26.08-.37.14-.32.15-.26.14-.34.22-.18.12a6.26,6.26,0,0,0-1.2,1.16l0,0c-.12.16-.24.32-.35.5l0,.05a7.53,7.53,0,0,0-1,2.58,10.33,10.33,0,0,0-.14,3.13c0,.14,0,.27,0,.42C59.26,120.91,67,118.25,67,118.25Z" transform="translate(-0.25)"/><path class="cls-7" d="M122.33,162.89h-.06l-.17.45C122.19,163.17,122.27,163,122.33,162.89Z" transform="translate(-0.25)"/><path class="cls-7" d="M134.91,181.35s-9.62,6.66-13.53,10.08-12.24,17.78-12.24,17.78H161.7s-6.38-34.63-12.25-38.5a13,13,0,0,0-2.2-1.06l-17.44,9.16Z" transform="translate(-0.25)"/><path class="cls-7" d="M98.42,208c0,.75-.08,1.18-.08,1.18h0l.09-1.16Z" transform="translate(-0.25)"/><path class="cls-7" d="M109.06,207.93l0,0,.1,1.23h0S109.1,208.75,109.06,207.93Z" transform="translate(-0.25)"/><path class="cls-7" d="M86.1,191.43c-3.91-3.42-13.53-10.08-13.53-10.08l5.1-2.54L60,169.53a13.38,13.38,0,0,0-2.51,1.18c-5.88,3.87-12.25,38.5-12.25,38.5h53.1S90,194.84,86.1,191.43Z" transform="translate(-0.25)"/><path class="cls-6" d="M103.7,166.25l10.77-10.4v-3.1c-3.43,1.16-8.27,2.68-10.45,2.81s-7.3-1.63-11.11-3.06l-.07,3.27Z" transform="translate(-0.25)"/><path class="cls-8" d="M113.11,180.25c.34-.62.78-1.42,1.28-2.35l-2.11-2.3-5.5,4.15L109,208l0,0C108.81,203.53,108.4,188.72,113.11,180.25Z" transform="translate(-0.25)"/><path class="cls-8" d="M93.05,177.84l1.32,2.41c4.75,8.54,4.29,23.52,4,27.78v0l2.18-28.3-5.5-4.15Z" transform="translate(-0.25)"/><path class="cls-8" d="M103.7,179.17a9,9,0,0,0-3.09.58,9.51,9.51,0,0,1,5.37-.25A6.3,6.3,0,0,0,103.7,179.17Z" transform="translate(-0.25)"/><path class="cls-9" d="M103.7,166.25l-8.59,9.35,5.5,4.15a11.06,11.06,0,0,1,3.08-.52,10.28,10.28,0,0,1,2.29.27,4.88,4.88,0,0,1,.8.25l5.5-4.15Z" transform="translate(-0.25)"/><path class="cls-10" d="M106.78,179.75a4.88,4.88,0,0,0-.8-.25,9.51,9.51,0,0,0-5.37.25l-2.18,28.3-.09,1.16v0h10.8v0L109,208Z" transform="translate(-0.25)"/><path class="cls-3" d="M103.7,166.25,92.84,155.77l-.22-.21-7.12,6.71-.45.42c.82,1.64,5.29,10.14,8,15.15l2.06-2.24Z" transform="translate(-0.25)"/><path class="cls-3" d="M103.7,166.25l8.58,9.35,2.11,2.3c2.46-4.53,6.39-12,7.71-14.57l.17-.45.07-.19-7.57-7.13-.3.29Z" transform="translate(-0.25)"/><path class="cls-11" d="M94.37,180.25l-1.32-2.41c-2.71-5-7.18-13.51-8-15.15l.45-.42,3.09-2.91a85.51,85.51,0,0,0-13.27,2.49c-.55.16-1.1.33-1.62.51h0c-.61.21-1.2.43-1.75.66-6.28,2.63-13.08,5.9-13.08,5.9l1.15.61,17.67,9.28-5.1,2.54S82.19,188,86.1,191.43s12.24,17.78,12.24,17.78,0-.43.08-1.18C98.66,203.77,99.12,188.79,94.37,180.25Z" transform="translate(-0.25)"/><path class="cls-11" d="M122.43,162.69c0,.06-.06.13-.1.2s-.14.28-.23.44c-1.32,2.59-5.25,10-7.71,14.57-.5.93-.94,1.73-1.28,2.35-4.71,8.47-4.3,23.28-4,27.68,0,.82.08,1.28.08,1.28s8.32-14.37,12.24-17.78,13.53-10.08,13.53-10.08l-5.1-2.54,17.44-9.16,1.38-.73s-6.8-3.27-13.07-5.9a36.08,36.08,0,0,0-4.08-1.37,88.39,88.39,0,0,0-12.59-2.29Z" transform="translate(-0.25)"/><path class="cls-12" d="M104,155.56c2.18-.13,7-1.65,10.45-2.81V148.6h0c-.35.17-.7.31-1,.46l-.3.12-.74.29-.29.11-.84.3-.12,0-.91.3-.24.07-.64.18-.26.07-.64.17-.16,0-.75.17-.17,0-.52.1-.21,0-.47.08-.14,0-.55.08h-.09l-.39.05h-.14l-.29,0h-.1l-.31,0h-1l-.2,0h-.18l-.27,0-.2,0-.35,0-.2,0-.43-.06-.14,0c-.56-.09-1.21-.21-1.92-.37l-.24-.06-.61-.15-.33-.09-.63-.18-.38-.11-.65-.21-.42-.14-.68-.25-.45-.17-.71-.27-.46-.2-.75-.32h0l-.08,3.85h0C96.72,153.93,101.89,155.69,104,155.56Z" transform="translate(-0.25)"/></g></g></g></svg>