<svg xmlns="http://www.w3.org/2000/svg" xmlns:xlink="http://www.w3.org/1999/xlink" viewBox="0 0 208.67 209.45"><defs><style>.cls-1{fill:none;}.cls-2{fill:#77ded4;}.cls-3{fill:#fff;}.cls-4{clip-path:url(#clip-path);}.cls-5{fill:#f2c4ae;}.cls-6{fill:#864242;}.cls-7{fill:#ced0d1;}.cls-8{fill:#00abec;}.cls-9{fill:#edc0aa;}.cls-10{fill:#efeff0;}.cls-11{fill:#e0a489;}</style><clipPath id="clip-path"><rect class="cls-1" width="208.67" height="208.67" rx="104.33"/></clipPath></defs><title>Asset 1img1</title><g id="Layer_2" data-name="Layer 2"><g id="Objects"><circle class="cls-2" cx="104.33" cy="104.33" r="94.33" transform="translate(-43.22 104.33) rotate(-45)"/><path class="cls-3" d="M104.33,0h0A104.33,104.33,0,0,0,0,104.33H0A104.33,104.33,0,0,0,104.33,208.67h0A104.34,104.34,0,0,0,208.67,104.33h0A104.34,104.34,0,0,0,104.33,0ZM10,104.33a94.34,94.34,0,1,1,94.33,94.34A94.44,94.44,0,0,1,10,104.33Z"/><g class="cls-4"><path class="cls-5" d="M139.79,98s2.38-46.66-35.46-46.5C66.5,51.29,68.87,98,68.87,98c-4.37-.25-9.25-.37-8.25,11.5s12.05,13,12.05,13c.66,12,8.33,23.67,14,28.67s17.66,5,17.66,5,12,0,17.67-5,13.33-16.67,14-28.67c0,0,11-1.12,12-13S144.17,97.7,139.79,98Z"/><path class="cls-6" d="M153.3,64.45c0-15.05-12.38-21.81-16.82-23.75a.41.41,0,0,1,.15-.78,21.9,21.9,0,0,1,5.17.28c-11.59-8.15-28.43-7.12-35.11-6.3a.74.74,0,0,1-.47-1.36c4.94-3,11.7-4.09,11.7-4.09-29,.55-41.08,12.61-44.46,16.89a.47.47,0,0,1-.83-.38c1-4.76,4.92-10.38,4.92-10.38C66.14,40.33,65.4,51.37,65.77,56.69a21.28,21.28,0,0,0-7.44,19.84C61.58,99.71,63.4,99,63.4,99s5.47-1,6.25,9.25c0,0,.81-22.58,1.56-25.83,5.3-6.34,9.46-17.12,9.46-17.12s38.84-11.84,52,10.12c5,8.4,3.74,30.33,3.74,30.33s1.81-8,6.9-7.44c0,0,3.12-15.61,3.43-27.53a8.55,8.55,0,0,1,2.57,4.47,28.91,28.91,0,0,0-.62-15.48.33.33,0,0,1,.56-.33C150.94,61.22,153.3,64.45,153.3,64.45Z"/><polygon class="cls-7" points="86.06 162.29 83.5 162.29 85.82 164.44 86.06 162.29"/><path class="cls-8" d="M180.34,182.45l-44.71-12.77L117.52,197,107,183.7l-.21.12-.28-.19.08.07L96,197,78.11,170,33.17,182.45s-7.88,7.88-18.5,27H198.84C188.22,190.33,180.34,182.45,180.34,182.45Z"/><path class="cls-9" d="M122.83,150.36c-.28.27-.56.52-.83.76C122.27,150.88,122.55,150.63,122.83,150.36Z"/><path class="cls-9" d="M87.29,151.63l-.06,0-.18,1.68.23-1.64Z"/><path class="cls-9" d="M126.3,154.16l-.89-6.6a35.6,35.6,0,0,1-2.57,2.78,33.64,33.64,0,0,0,2.56-2.77Z"/><path class="cls-9" d="M106.47,183.63l.28.19.21-.12h0l20.73-19.26-.28-2.14-1.1-8.1c-2.61,3.4-15,10.34-20.27,10.39-5.1,0-18.27-8.88-19.19-9.52l-.79,7.22-.24,2.15Z"/><polygon class="cls-10" points="106.55 183.7 106.47 183.63 85.82 164.44 83.5 162.29 77.83 169.62 78.11 170.04 95.99 197.03 106.55 183.7"/><polygon class="cls-10" points="127.71 164.59 127.69 164.44 106.96 183.7 106.96 183.7 117.52 197.03 135.63 169.68 135.68 169.62 130.01 162.29 127.71 164.59"/><polygon class="cls-7" points="127.71 164.59 130.01 162.29 130.01 162.29 127.4 162.29 127.41 162.29 127.69 164.44 127.71 164.59"/><path class="cls-11" d="M106,164.59c5.29-.05,17.66-7,20.27-10.39h0v0l-.9-6.59a33.64,33.64,0,0,1-2.56,2.77v0c-.28.27-.56.52-.83.76-5.67,5-17.67,5-17.67,5s-11.16,0-17-4.49h0l-.23,1.64L86.79,155l.06,0C87.77,155.71,100.94,164.64,106,164.59Z"/></g></g></g></svg>