<svg xmlns="http://www.w3.org/2000/svg" xmlns:xlink="http://www.w3.org/1999/xlink" viewBox="0 0 208.67 209.12"><defs><style>.cls-1{fill:none;}.cls-2{fill:#dbde6a;}.cls-3{fill:#fff;}.cls-4{clip-path:url(#clip-path);}.cls-5{fill:#d86d25;}.cls-6{fill:#7f3f95;}.cls-7{fill:#ffc7ad;}.cls-8{fill:#a753c4;}.cls-9{fill:#ebbea8;}</style><clipPath id="clip-path"><rect class="cls-1" width="208.67" height="208.67" rx="104.33"/></clipPath></defs><title>Asset 3img</title><g id="Layer_2" data-name="Layer 2"><g id="Objects"><circle class="cls-2" cx="104.33" cy="104.33" r="94.33" transform="translate(-43.22 104.33) rotate(-45)"/><path class="cls-3" d="M104.33,0h0A104.33,104.33,0,0,0,0,104.33H0A104.34,104.34,0,0,0,104.33,208.67h0A104.34,104.34,0,0,0,208.67,104.33h0A104.33,104.33,0,0,0,104.33,0ZM10,104.33a94.34,94.34,0,1,1,94.33,94.34A94.44,94.44,0,0,1,10,104.33Z"/><g class="cls-4"><path class="cls-5" d="M85.69,162.6l7.57-7.12.17.16.2-6.28c-9-3.08-21.61-11.19-27-32.57-1.22-4.79-1.7-14.42.64-19.77,13,3.94,37.67.1,58-23.56,2,11.58,9.59,19,15.9,23.89.19,7-1,18.28-2.33,23-5.4,19.07-15.61,26.48-23.69,29.31h0v5.85l.08-.07,7.57,7.12,0,.1,3.76.87c12.32-4.19,23-11,20.93-17.24-3.43-10.31.76-29,.76-29,9.58-69.67-41.36-68.95-44.74-68.82-3.39-.13-54.33-.85-44.74,68.82,0,0,4.18,18.66.75,29-2.11,6.35,9.05,13.33,21.69,17.5l4.62-1.08Z"/><path class="cls-6" d="M149,169.92c.28.12.53.24.76.36C149.5,170.16,149.24,170,149,169.92Z"/><path class="cls-6" d="M149.73,170.28c.22.12.42.23.58.34C150.15,170.51,150,170.4,149.73,170.28Z"/><path class="cls-6" d="M59,170.28c.22-.12.48-.24.76-.36C59.43,170,59.17,170.16,59,170.28Z"/><path class="cls-6" d="M58.35,170.62c.17-.11.37-.22.59-.34-.22.12-.42.23-.59.34-5.87,3.88-12.25,38.5-12.25,38.5h0S52.48,174.5,58.35,170.62Z"/><path class="cls-6" d="M140.6,198.83c.68-12.62,4-22,8.36-28.91-4-1.75-13.35-4.19-22.49-6.35l-3.76-.87-6.21,17-12.28-13.38L91.94,179.67l-6.2-16.92-4.62,1.08c-8.79,2.09-17.59,4.41-21.41,6.09,4.31,6.92,7.68,16.29,8.35,28.91a81.19,81.19,0,0,1,0,10.29h72.61A81,81,0,0,1,140.6,198.83Z"/><path class="cls-7" d="M104.22,166.05l10.88-10.5v-3.77c-3.6,1.78-7.75,3.57-10.5,3.45-2.6-.11-7.43-1.91-11-3.39l.1-2.45a38.92,38.92,0,0,0,10.91,2,27.56,27.56,0,0,0,10.54-1.66h0c8.08-2.83,18.29-10.24,23.69-29.31,1.35-4.76,2.52-16,2.33-23-6.31-4.93-13.93-12.31-15.9-23.89-20.33,23.66-45,27.5-58,23.56-2.34,5.35-1.86,15-.64,19.77,5.44,21.38,18.09,29.49,27.05,32.57l-.2,6.28Z"/><polygon class="cls-3" points="115.17 155.48 115.1 155.55 104.22 166.06 93.43 155.64 93.26 155.48 85.69 162.6 85.74 162.75 91.94 179.66 104.22 166.29 116.5 179.66 122.72 162.7 122.75 162.6 115.17 155.48"/><path class="cls-8" d="M68.06,198.83c-.67-12.62-4-22-8.35-28.91h0c-.28.12-.54.24-.76.36h0c-.22.12-.42.23-.59.34-5.87,3.88-12.25,38.5-12.25,38.5H68A81.19,81.19,0,0,0,68.06,198.83Z"/><path class="cls-8" d="M150.31,170.62c-.16-.11-.36-.22-.58-.34h0c-.23-.12-.48-.24-.76-.36h0c-4.32,6.92-7.68,16.29-8.36,28.91a81,81,0,0,0,0,10.29h21.92S156.19,174.5,150.31,170.62Z"/><path class="cls-9" d="M104.56,151.37a38.92,38.92,0,0,1-10.91-2l-.1,2.45c3.62,1.48,8.45,3.28,11,3.39,2.75.12,6.9-1.67,10.5-3.45V149.7h0A27.56,27.56,0,0,1,104.56,151.37Z"/><path class="cls-8" d="M105.44,176.91a1.11,1.11,0,1,0-1.11,1.11A1.11,1.11,0,0,0,105.44,176.91Z"/><path class="cls-8" d="M105.44,189.7a1.11,1.11,0,1,0-1.11,1.11A1.11,1.11,0,0,0,105.44,189.7Z"/><path class="cls-8" d="M105.44,202.49a1.11,1.11,0,1,0-1.11,1.11A1.11,1.11,0,0,0,105.44,202.49Z"/></g></g></g></svg>