<svg xmlns="http://www.w3.org/2000/svg" xmlns:xlink="http://www.w3.org/1999/xlink" viewBox="0 0 444.85 409.63"><defs><style>.cls-1{fill:#e6e6e6;}.cls-2{fill:#d3aed1;}.cls-17,.cls-20,.cls-3{fill:none;stroke-miterlimit:10;}.cls-3{stroke:#fff;}.cls-20,.cls-3{stroke-width:2px;}.cls-4{fill:#a7b9b8;}.cls-5{fill:url(#linear-gradient);}.cls-6{fill:url(#linear-gradient-2);}.cls-7{fill:#1c1e2f;}.cls-8{fill:#ffaf83;}.cls-9{fill:#ff7f2b;}.cls-10{fill:#eee7d7;}.cls-11{fill:#f7a379;}.cls-12{fill:#631958;}.cls-13{fill:#ef6a20;}.cls-14{fill:#a46836;}.cls-15{fill:url(#linear-gradient-3);}.cls-16{fill:url(#linear-gradient-4);}.cls-17{stroke:#631958;stroke-width:3px;}.cls-18{fill:url(#linear-gradient-5);}.cls-19{fill:url(#linear-gradient-6);}.cls-20{stroke:#ff7f2b;stroke-dasharray:6;}.cls-21{fill:#ffc700;}.cls-22{font-size:30.64px;}.cls-22,.cls-23{fill:#fff;font-family:Metropolis-Black, Metropolis;font-weight:800;}.cls-23{font-size:30.04px;}</style><linearGradient id="linear-gradient" x1="232.03" y1="320.03" x2="341.31" y2="320.03" gradientUnits="userSpaceOnUse"><stop offset="0" stop-color="#ff0a7b"/><stop offset="0.19" stop-color="#f60973"/><stop offset="0.51" stop-color="#dc065c"/><stop offset="0.92" stop-color="#b30137"/><stop offset="1" stop-color="#aa002f"/></linearGradient><linearGradient id="linear-gradient-2" x1="157.91" y1="352.45" x2="271.37" y2="263.1" gradientUnits="userSpaceOnUse"><stop offset="0" stop-color="#ffc700"/><stop offset="0.19" stop-color="#ffbe00"/><stop offset="0.51" stop-color="#ffa400"/><stop offset="0.91" stop-color="#ff7b00"/><stop offset="0.94" stop-color="#ff7800"/></linearGradient><linearGradient id="linear-gradient-3" x1="67.91" y1="360.52" x2="92.26" y2="360.52" gradientUnits="userSpaceOnUse"><stop offset="0" stop-color="#15a0ff"/><stop offset="0.19" stop-color="#179ff6"/><stop offset="0.51" stop-color="#1d9ddc"/><stop offset="0.57" stop-color="#1e9cd7"/><stop offset="0.87" stop-color="#0075be"/><stop offset="0.99" stop-color="#005b97"/></linearGradient><linearGradient id="linear-gradient-4" x1="77.08" y1="361.16" x2="99.69" y2="361.16" xlink:href="#linear-gradient-3"/><linearGradient id="linear-gradient-5" x1="53.71" y1="100.06" x2="198.56" y2="100.06" xlink:href="#linear-gradient-3"/><linearGradient id="linear-gradient-6" x1="224.7" y1="175" x2="375.12" y2="175" gradientUnits="userSpaceOnUse"><stop offset="0" stop-color="#a32e98"/><stop offset="0.2" stop-color="#9a298f"/><stop offset="0.54" stop-color="#811a75"/><stop offset="0.97" stop-color="#58024c"/><stop offset="1" stop-color="#550049"/></linearGradient></defs><title>Asset 2img</title><g id="Layer_2" data-name="Layer 2"><g id="OBJECTS"><ellipse class="cls-1" cx="222.11" cy="393.29" rx="197.5" ry="16.34"/><path class="cls-1" d="M43.47,401C16.64,353.92,1.44,296.88.37,239.32c-.22-11.89.29-24.43,5.38-34.52C11,194.36,20.4,188.14,29.93,184.58a66.4,66.4,0,0,1,32.13-3.71c20.15,2.69,38.71,14.57,58.47,20.17,9.8,2.78,20.7,3.79,29.33-2.58,5.2-3.85,9-10,12.4-16.21,10.12-18.52,17.8-38.91,27.21-58s21-37.31,36.64-48.54,36-14.35,51.78-3.36c20.78,14.5,27.26,46.82,34,75.11,3.2,13.51,7,27.16,14.23,38,14.42,21.8,38.74,28,60.75,35.27s46.13,20,53.68,46.52c6.44,22.67-1.67,47.62-11.86,68.08a404.13,404.13,0,0,1-23,39.55c-4.43,6.84-9.13,13.75-15.4,17.83-6.73,4.37-14.59,5.05-22.19,5.5a649.34,649.34,0,0,1-144.72-7.57c-29.36-4.86-59-11.74-88.39-7.28-14.62,2.22-28.9,7.22-43.54,9.21-16.62,2.27-34,.76-49.43,8.82"/><path class="cls-2" d="M106.58,314s17.58,28.55-19.13,74.84l-6.79-2.43L73.88,384C74.88,324.94,106.58,314,106.58,314Z"/><line class="cls-3" x1="106.58" y1="314.03" x2="80.66" y2="386.44"/><polyline class="cls-3" points="110.75 335.4 97.06 340.63 89.8 327.9"/><polyline class="cls-3" points="107.85 352.32 91.36 356.55 81.31 342.82"/><polyline class="cls-3" points="101.39 367.97 85.68 372.48 76.39 359.02"/><path class="cls-2" d="M6.3,285.22s-25.07,40.7,27.28,106.7l9.67-3.46L52.93,385C51.5,300.77,6.3,285.22,6.3,285.22Z"/><line class="cls-3" x1="6.3" y1="285.22" x2="43.25" y2="388.46"/><polyline class="cls-3" points="0.36 315.69 19.87 323.15 30.22 305"/><polyline class="cls-3" points="4.49 339.82 27.99 345.85 42.34 326.27"/><polyline class="cls-3" points="13.7 362.13 36.1 368.56 49.34 349.37"/><path class="cls-4" d="M59.14,251.43s-46,36.83-12.67,135.18H71.81C105.14,288.26,59.14,251.43,59.14,251.43Z"/><line class="cls-3" x1="59.14" y1="251.43" x2="59.14" y2="386.61"/><polyline class="cls-3" points="39.59 284.33 59.14 301.09 78.69 284.33"/><polyline class="cls-3" points="34.36 314.05 59.13 330.81 83.91 314.05"/><polyline class="cls-3" points="35.78 343.77 59.11 360.53 82.44 343.77"/><path class="cls-2" d="M349.85,323.19s-15.66,25.44,17,66.68l6-2.16,6.05-2.17C378.1,332.91,349.85,323.19,349.85,323.19Z"/><line class="cls-3" x1="349.85" y1="323.19" x2="372.94" y2="387.71"/><polyline class="cls-3" points="346.14 342.23 358.33 346.89 364.8 335.55"/><polyline class="cls-3" points="348.72 357.31 363.41 361.08 372.37 348.84"/><polyline class="cls-3" points="354.48 371.25 368.48 375.27 376.75 363.28"/><path class="cls-2" d="M439.2,297.52s22.34,36.27-24.31,95.08l-8.62-3.09-8.62-3.09C398.93,311.37,439.2,297.52,439.2,297.52Z"/><line class="cls-3" x1="439.2" y1="297.52" x2="406.27" y2="389.51"/><polyline class="cls-3" points="444.5 324.67 427.11 331.31 417.89 315.14"/><polyline class="cls-3" points="440.82 346.17 419.87 351.54 407.09 334.1"/><polyline class="cls-3" points="432.61 366.05 412.65 371.77 400.85 354.68"/><path class="cls-4" d="M392.12,267.41s41,32.82,11.28,120.45H380.83C351.13,300.23,392.12,267.41,392.12,267.41Z"/><line class="cls-3" x1="392.12" y1="267.41" x2="392.12" y2="387.86"/><polyline class="cls-3" points="409.54 296.72 392.12 311.66 374.7 296.72"/><polyline class="cls-3" points="414.2 323.21 392.13 338.14 370.05 323.21"/><polyline class="cls-3" points="412.94 349.69 392.15 364.63 371.36 349.69"/><path class="cls-5" d="M335.85,283.17H301.36a20.81,20.81,0,1,0-29.38,0H237.49a5.47,5.47,0,0,0-5.46,5.47V323a20.82,20.82,0,1,1,0,29.71V387a5.46,5.46,0,0,0,5.46,5.46h98.36a5.45,5.45,0,0,0,5.46-5.46V288.64A5.46,5.46,0,0,0,335.85,283.17Z"/><path class="cls-6" d="M246.36,317a20.73,20.73,0,0,0-14.57,6V288.64a5.46,5.46,0,0,0-5.46-5.47H191.84a20.82,20.82,0,1,0-29.38,0H128a5.47,5.47,0,0,0-5.46,5.47V323a20.82,20.82,0,1,1,0,29.71V387a5.46,5.46,0,0,0,5.46,5.46h98.36a5.45,5.45,0,0,0,5.46-5.46V352.67A20.81,20.81,0,1,0,246.36,317Z"/><path class="cls-7" d="M362.58,285.54s8.34-.31,9.6,8.51-3.73,11.35-3.73,11.35H355.58S351.92,285.9,362.58,285.54Z"/><path class="cls-8" d="M356.42,296c0,4.57,2.77,8.27,5,8.27s7.29-3.7,7.29-8.27.28-8.26-6.16-8.26C355.79,287.78,356.42,291.48,356.42,296Z"/><polygon class="cls-8" points="361.24 311.86 364.65 311.86 364.65 302.81 361.64 302.81 361.24 311.86"/><path class="cls-9" d="M340.92,309.32l10.3,9s3.9-6.41,5.28-9.53a3.92,3.92,0,0,1,3.24-2.36v6.29l1.74-1.33,1.1,1.73,4.21-6.54c2.14.29,5.19,1.25,5.6,4.35.65,4.85-3.64,18.3-3.64,18.3H359.1L357.8,316s-4.07,8.23-6,8.23S339,311.92,339,311.92Z"/><path class="cls-10" d="M361.48,311.4l3.17-4.92a12.88,12.88,0,0,1,2.14.11l-4.21,6.54Z"/><path class="cls-10" d="M359.74,306.44a5.52,5.52,0,0,1,1.74,0v4.92l-1.74,1.33Z"/><path class="cls-8" d="M341.19,309.76s-2.92-5.42-3.35-5.25,1,3.11,1,3.11-3-3.52-3.58-3.3a2.19,2.19,0,0,0-.79,3.51,27.63,27.63,0,0,0,5.32,4.06Z"/><path class="cls-7" d="M372.53,388s-2.72,4-3.6,5.41.2,2.38,3.45.49c.94-.54,2.85-3.61,2.85-3.61l1.08,2.45.25-.09s.05-5.05-1.58-5.51Z"/><path class="cls-11" d="M364.49,363.61c1.78-.63,3.14-2.2,4.42.27a30.5,30.5,0,0,1,3.76,10.62c1,6.26,2.31,12.59,2.31,12.59s-2,3.05-3.6,3.84,1.15-3,1.15-3-6.26-16.52-7.54-18.64S362.71,364.24,364.49,363.61Z"/><path class="cls-7" d="M360.05,388.64s-3.89,2.86-5.19,3.9-.61,2.31,3.09,1.61c1.07-.2,3.89-2.45,3.89-2.45l.2,2.67h.26s1.74-4.75.35-5.73Z"/><path class="cls-8" d="M360.05,388.64s-.39-17.66-.88-20.09-.46-5.54,1.42-5.54,3.69-1,4.08,1.73a30.45,30.45,0,0,1,0,11.26c-1.15,6.23-2,12.64-2,12.64s-2.85,2.23-4.67,2.42S360.05,388.64,360.05,388.64Z"/><path class="cls-8" d="M344.3,325.52s-6-1.48-6.15-1,2.94,1.38,2.94,1.38-4.59-.17-4.85.44a2.19,2.19,0,0,0,2.08,2.94A27.35,27.35,0,0,0,344.9,328Z"/><path class="cls-12" d="M368.75,329.24s4.21,2.57,4.44,11.83S370,364.74,370,364.74H358.53s-1.59-29.3.57-35.5Z"/><path class="cls-13" d="M370.33,311.13a7.86,7.86,0,0,1-.92,4.77c-1,1.73-6,7.91-8,10.3a2.06,2.06,0,0,1-2,.72l-.52-.1-.49-5-.1-1,8.85-11.95Z"/><path class="cls-9" d="M367.13,308.89l-8.75,12.91-15.29,3.4.6,3.43s15.3-1.81,16.6-2.76,9.61-12.47,9.61-12.47S372,309.25,367.13,308.89Z"/><path class="cls-13" d="M356.79,317.93l-.38.68s-.73-4.94,1.87-6.75l-.06,3.37Z"/><path class="cls-9" d="M358.28,311.86s-3.49,6.78-.09,8.08l1.55-1.74Z"/><path class="cls-7" d="M356.41,293.69l2.48-3.59a8.18,8.18,0,0,0,7.06,4.4c4.08.29.21,4,.21,4l-2.4,6.94h4.69s2.68-12.44,1-15-3.29-3.92-6.44-3.78S355.74,288,356.41,293.69Z"/><path class="cls-8" d="M163.34,176s.19-.91,1.89-1.95,4.64-.52,5.44-1.15-6.58-.79-8-.44-2.48,4.6-2.48,4.6Z"/><path class="cls-8" d="M123,176s-.19-.91-1.89-1.95-4.64-.52-5.44-1.15,6.58-.79,8-.44,2.48,4.6,2.48,4.6Z"/><polygon class="cls-8" points="144.6 203.34 141.2 203.21 141.56 194.16 144.56 194.28 144.6 203.34"/><path class="cls-8" d="M150,187.72c-.18,4.56-3.09,8.15-5.36,8.06s-7.13-4-7-8.54,0-8.27,6.48-8C151,179.49,150.22,183.16,150,187.72Z"/><path class="cls-14" d="M149.72,181.82a12.08,12.08,0,0,1-7.45,2.22l.32,3s-2-1.86-2.22-.09a3.76,3.76,0,0,0,1.35,3l-.16,4.19s-4.22-1.82-5.19-8.2,4.2-8.3,5.14-8C141.51,178,149.09,176.63,149.72,181.82Z"/><path class="cls-9" d="M136.25,197.17h5.19a1.65,1.65,0,0,0,3.13,0h0l8-.15-1.63,26.3h-14l-2.72-26Z"/><path class="cls-12" d="M146.28,233.56c2.09-3.18,0-10.24,0-10.24h-9.37L131,278.4h4.44s4.77-17.64,5.47-23.63c0,0,3-17.66,5.37-21.21"/><path class="cls-7" d="M131,278.4s-.8.15-1,2.37.5,2.08.5,2.08h5.42s1.45-2.52-.48-4.45S131,278.4,131,278.4Z"/><path class="cls-12" d="M141.58,233.56c-2.09-3.18,0-10.24,0-10.24h9.36l5.91,55.08h-4.43s-4.77-17.64-5.48-23.63c0,0-3-17.66-5.36-21.21"/><path class="cls-7" d="M156.85,278.4s.8.15,1,2.37-.51,2.08-.51,2.08h-5.42s-1.45-2.52.49-4.45S156.85,278.4,156.85,278.4Z"/><path class="cls-9" d="M123,176s-5,18.82-1.47,20.08,16.24,7.3,16.24,7.3l1.33-6.17-12.94-6.39V177Z"/><path class="cls-9" d="M163.31,176s5,18.82,1.47,20.08-16.24,7.3-16.24,7.3l-1.33-6.17,12.94-6.39V177Z"/><path class="cls-7" d="M73.22,386.69s4,3.6,5.76,3.77,4.63,3.61-.41,3.6-7.52-1.14-7.52-1.14a1.88,1.88,0,0,1-2,.74c-1.21-.4-2.85-4.53-1.12-6.51S73.22,386.69,73.22,386.69Z"/><path class="cls-15" d="M92.26,338l-18.37,49.3-6-.13s3.51-24,8.45-26.56c0,0-2-12.9.54-19.22s3.58-7.61,3.58-7.61Z"/><path class="cls-7" d="M99,386.69s4,3.6,5.77,3.77,4.62,3.61-.42,3.6-7.51-1.14-7.51-1.14a1.9,1.9,0,0,1-2,.74c-1.21-.4-2.84-4.53-1.12-6.51S99,386.69,99,386.69Z"/><path class="cls-16" d="M79.42,335.05s-3.93,6.27-1.6,11.31,13.23,16.23,13.23,16.23S88,366.24,93.7,387.15l6,.13s.18-23.39-2.29-29-7.78-16.79-7.78-16.79L92.26,338Z"/><polygon class="cls-8" points="93.87 317.6 90.55 316.85 92.56 308.02 95.49 308.69 93.87 317.6"/><path class="cls-8" d="M123.71,313.34s5.73-2.23,6-1.82-2.74,1.75-2.74,1.75,4.53-.76,4.86-.19a2.19,2.19,0,0,1-1.68,3.19,27.59,27.59,0,0,1-6.68-.37Z"/><path class="cls-9" d="M97.65,322.12l-6.53,18.93L78,338s4.7-19.47,6.41-24.06c1.09-2.92,3-2.88,5.19-2.69a13.2,13.2,0,0,1,2.12.36l.46.7a1.58,1.58,0,0,0,2.62,0h0a5.69,5.69,0,0,1,1.71.35,7.82,7.82,0,0,1,1.79.84,10.76,10.76,0,0,0,7.12,1.55l19.8-2.23v3.86Z"/><path class="cls-8" d="M102.08,303.25c-1,4.45-4.53,7.44-6.75,6.93s-6.28-5.22-5.26-9.67,1.56-8.12,7.84-6.69C104.53,295.33,103.09,298.8,102.08,303.25Z"/><path class="cls-14" d="M102.85,297.39a12.1,12.1,0,0,1-7.74.81l-.23,3s-1.66-2.21-2.17-.5a3.77,3.77,0,0,0,.78,3.2L92.56,308s-3.81-2.56-3.6-9,5.66-7.38,6.52-6.92C95.48,292.08,103.18,292.17,102.85,297.39Z"/><path class="cls-8" d="M119,301.47s.92-.16,2-1.81.7-4.62,1.36-5.39.53,6.6.13,8-4.69,2.3-4.69,2.3Z"/><path class="cls-9" d="M86.88,310.74,119,301.47l.33,3.52L86.73,317.2S81.77,313.91,86.88,310.74Z"/><path class="cls-14" d="M96.43,292.14s4.22-.37,6.53,2.07a12.42,12.42,0,0,0,4.89,2.67s-8.35,3.42-12.74,1.32S96.43,292.14,96.43,292.14Z"/><line class="cls-17" x1="167.72" y1="268.2" x2="167.72" y2="393.45"/><line class="cls-17" x1="187.42" y1="268.2" x2="187.42" y2="393.45"/><line class="cls-17" x1="167.72" y1="286.78" x2="187.42" y2="286.78"/><line class="cls-17" x1="167.72" y1="304.4" x2="187.42" y2="304.4"/><line class="cls-17" x1="167.72" y1="322.02" x2="187.42" y2="322.02"/><line class="cls-17" x1="167.72" y1="339.63" x2="187.42" y2="339.63"/><line class="cls-17" x1="167.72" y1="357.25" x2="187.42" y2="357.25"/><line class="cls-17" x1="167.72" y1="374.86" x2="187.42" y2="374.86"/><path class="cls-18" d="M193.09,63H158.42a21,21,0,1,0-31,0H94.74a5.47,5.47,0,0,0-5.47,5.47v34.48a20.82,20.82,0,1,0,0,29.39v34.48a5.47,5.47,0,0,0,5.47,5.47h34.32a20.82,20.82,0,1,1,29.71,0h34.32a5.47,5.47,0,0,0,5.47-5.47V68.46A5.47,5.47,0,0,0,193.09,63Z"/><path class="cls-19" d="M351.37,158.75a20.7,20.7,0,0,0-13.58,8l-4.85-34a5.47,5.47,0,0,0-6.18-4.64l-34,4.85a20.82,20.82,0,1,0-29.41,4.19l-34,4.84a5.48,5.48,0,0,0-4.64,6.19l13.88,97.36a5.47,5.47,0,0,0,6.18,4.64l34-4.84a20.82,20.82,0,1,1,29.41-4.19l34-4.85a5.46,5.46,0,0,0,4.64-6.18l-4.84-34a20.81,20.81,0,1,0,9.39-37.37Z"/><path class="cls-1" d="M411.5,23.56a12.58,12.58,0,0,0-10,4.9,24.4,24.4,0,1,0-48.17-7.79A16.82,16.82,0,0,0,324,32a17,17,0,0,0,.66,4.66h73.9c.1-.17.19-.36.28-.54v.1c0,.15,0,.29,0,.44h25.2c0-.15,0-.29,0-.44A12.62,12.62,0,0,0,411.5,23.56Z"/><path class="cls-1" d="M49.53,56.89A7,7,0,0,0,44,59.6a13.82,13.82,0,0,0,.19-2.24A13.48,13.48,0,0,0,17.4,55.3,9.3,9.3,0,0,0,1.2,61.53a9.14,9.14,0,0,0,.37,2.58H42.4c.05-.09.1-.2.16-.3v.06a1.93,1.93,0,0,0,0,.24H56.49a1.94,1.94,0,0,0,0-.24A7,7,0,0,0,49.53,56.89Z"/><path class="cls-1" d="M434.76,133.65a8.25,8.25,0,0,0-6.53,3.21,15.57,15.57,0,0,0,.23-2.66,16,16,0,0,0-31.75-2.44A11,11,0,0,0,378,142.2h48.36l.19-.35v.06a2.83,2.83,0,0,0,0,.29H443c0-.1,0-.19,0-.29A8.26,8.26,0,0,0,434.76,133.65Z"/><path class="cls-20" d="M225.65,45.64c19.93-27.21,59.38-38,90.41-24.85,9.87,4.2,19,10.77,24.49,20s6.63,21.35,1.32,30.66c-2.1,3.68-5.27,6.9-9.29,8.24-7.69,2.57-16.54-3-19.05-10.74s.4-16.44,5.8-22.49c9.07-10.14,24.28-13.31,37.53-10.18S381.51,48,390.61,58.1c27.83,30.93,37,75,20.54,113.14"/><polygon class="cls-9" points="415.11 188.31 388.92 206.63 404.57 171.66 415.11 188.31"/><polygon class="cls-21" points="393.02 165.34 388.92 206.63 404.57 171.66 393.02 165.34"/><polygon class="cls-21" points="409.96 174.61 388.92 206.63 421.5 180.94 409.96 174.61"/><path class="cls-8" d="M235.83,248.72s2.92-5.42,3.36-5.25-.95,3.11-.95,3.11,2.95-3.52,3.58-3.3a2.18,2.18,0,0,1,.78,3.51,27.51,27.51,0,0,1-5.32,4.07Z"/><polygon class="cls-8" points="215.79 250.83 212.38 250.83 212.38 241.77 215.38 241.77 215.79 250.83"/><path class="cls-8" d="M220.6,235c0,4.56-2.76,8.26-5,8.26s-7.28-3.7-7.28-8.26-.28-8.27,6.16-8.27C221.23,226.74,220.6,230.44,220.6,235Z"/><path class="cls-9" d="M236.11,248.29l-9.55,8.34a65.55,65.55,0,0,1-4.79-8.77c-.89-2.37-3.36-2.31-4.48-2.46a5.6,5.6,0,0,0-1.75,0h0A1.57,1.57,0,0,1,213,246l-.61-.57a12.86,12.86,0,0,0-2.14.11c-2.15.29-6,.84-6.41,3.94-.65,4.85,1.74,21.56,1.74,21.56h13.18l.47-16.1s4.07,8.23,6,8.23,13.47-11.49,13.47-11.49Z"/><path class="cls-8" d="M233.61,238s2-5.83,2.44-5.74-.42,3.23-.42,3.23,2.32-4,3-3.86A2.19,2.19,0,0,1,240,235a27.47,27.47,0,0,1-4.57,4.89Z"/><path class="cls-13" d="M206.68,250.83a4.53,4.53,0,0,0,2.12,3.69c2.07,1.11,15.38-1.83,15.38-1.83l-3-5.63a2,2,0,0,0-2-.76c-2.28.4-7.67,1.19-11.87,2Z"/><path class="cls-9" d="M207.31,248.31l15.43-2,10.58-9.9,3.24,2.79s-9.76,11.91-11.27,12.5S210,253.84,210,253.84,205,252.64,207.31,248.31Z"/><path class="cls-7" d="M208.28,319s1.11,5.25,2.45,6.44,1.62,5.63-2.45,2.67-5.41-5.34-5.41-5.34a1.92,1.92,0,0,1-2.08-.59c-.74-1,.36-5.34,2.93-5.93S208.28,319,208.28,319Z"/><path class="cls-12" d="M205.57,271.05a14.58,14.58,0,0,0-.89,12.12A42,42,0,0,0,214.45,298s-3.43-.3-10.73,18.24l4.56,2.75s14.83-16.84,14.45-21.43-6.07-14.42-6.07-14.42h5l-2.88-12.12Z"/><path class="cls-7" d="M220.62,226.14h-.08a1.63,1.63,0,0,0,.08-.45,1.41,1.41,0,0,0-1.41-1.41,1.51,1.51,0,0,0-.64.16,1.4,1.4,0,0,0-2.47-.59,1.39,1.39,0,0,0-1.33-1,1.41,1.41,0,0,0-1.2.67,1.38,1.38,0,0,0-1.19-.67,1.42,1.42,0,0,0-1.3.85,1.41,1.41,0,0,0-2.4,1,.68.68,0,0,0,0,.14,9.76,9.76,0,0,0-3.42,2.67.49.49,0,0,0,0,.12,1.4,1.4,0,0,0-.85,1.29,1.35,1.35,0,0,0,.17.66,1.38,1.38,0,0,0-.74,1.23,1.4,1.4,0,0,0,1.13,1.37v0a1.38,1.38,0,0,0,1.82,1.34c0,.07,0,.13.05.2,2,6.13,5.51,8,5.51,8v-4.19a3.76,3.76,0,0,1-1.47-2.94c.11-1.78,2.22,0,2.22,0l-.37-2.54a1.36,1.36,0,0,0,.6.14,1.4,1.4,0,0,0,1.24-.75,1.42,1.42,0,0,0,.83.27,1.39,1.39,0,0,0,1.21-.7,1.46,1.46,0,0,0,.55.11,1.39,1.39,0,0,0,1.34-1,1.31,1.31,0,0,0,.68.19,2.22,2.22,0,0,0,1.41-4.22Z"/><text class="cls-22" transform="translate(101.39 110.44)">G-32</text><text class="cls-23" transform="matrix(0.99, -0.15, 0.15, 0.99, 253.63, 190.76)">DTS</text></g></g></svg>