<svg xmlns="http://www.w3.org/2000/svg" xmlns:xlink="http://www.w3.org/1999/xlink" viewBox="0 0 323.34 61.71"><defs><style>.cls-1{font-size:35.96px;fill:#f2f2f2;}.cls-1,.cls-2{font-family:Verdana-Bold, Verdana;font-weight:700;}.cls-2{font-size:18.13px;fill:#999;}.cls-3{stroke:#fff;stroke-linecap:round;stroke-linejoin:round;fill:url(#linear-gradient);}</style><linearGradient id="linear-gradient" x1="39.48" y1="61.21" x2="39.48" y2="0.5" gradientUnits="userSpaceOnUse"><stop offset="0" stop-color="#15a0ff"/><stop offset="0.19" stop-color="#179ff6"/><stop offset="0.51" stop-color="#1d9ddc"/><stop offset="0.57" stop-color="#1e9cd7"/><stop offset="0.87" stop-color="#0075be"/><stop offset="0.99" stop-color="#005b97"/></linearGradient></defs><title>Asset 10logo</title><g id="Layer_2" data-name="Layer 2"><g id="Layer_1-2" data-name="Layer 1"><text class="cls-1" transform="translate(90.12 31.9)">TEAM G-32 </text><text class="cls-2" transform="translate(93.16 56.11)">PROGATE DTS 2020</text><path class="cls-3" d="M78.47,47.79H55.53l9.08-6.47c10.08-6.89,13.27-12.85,13.27-20.5,0-11-9.07-18.9-22-18.9a28.51,28.51,0,0,0-11.2,2.21,57.65,57.65,0,0,0-8.59-2.44A53.17,53.17,0,0,0,24.89.5a43.2,43.2,0,0,0-9.67,1A24,24,0,0,0,8.37,4,13.13,13.13,0,0,0,3.59,8.68,12.77,12.77,0,0,0,2,15.1a13.59,13.59,0,0,0,3,8.67,13.32,13.32,0,0,0,8,4.87v.55a20.69,20.69,0,0,0-4.23,1.1,13.3,13.3,0,0,0-4.07,2.39,12.51,12.51,0,0,0-3.05,3.83A12.7,12.7,0,0,0,.5,42.34,18.37,18.37,0,0,0,2.12,50a15.86,15.86,0,0,0,5,6.1,23.93,23.93,0,0,0,7.73,3.78,38.6,38.6,0,0,0,10.78,1.31,67.8,67.8,0,0,0,9.14-.57h43.7ZM33.53,49v.18a24.81,24.81,0,0,1-5.16.6,35.43,35.43,0,0,1-4.93-.37,10.48,10.48,0,0,1-4.5-1.62,7.66,7.66,0,0,1-2.31-2.37,7.64,7.64,0,0,1-.86-4,6,6,0,0,1,1.17-3.94,6.43,6.43,0,0,1,3.09-2,16.07,16.07,0,0,1,4.62-.69q2.7-.06,5-.06h3.21V24.3H29.54c-2,0-3.83-.06-5.4-.2a12.9,12.9,0,0,1-4-.9,5.81,5.81,0,0,1-2.58-2,6.29,6.29,0,0,1-.86-3.62,4.28,4.28,0,0,1,.9-2.84,6.17,6.17,0,0,1,2.27-1.7,11.41,11.41,0,0,1,3.6-.94A31.61,31.61,0,0,1,27,11.89a27.21,27.21,0,0,1,6.19.86c-.15.18-.31.33-.46.51l9,8.9c4.36-4.62,8.4-7.22,13.77-7.22,4.2,0,7.65,2.52,7.65,6.47,0,3.53-1.85,6.72-8.32,11.59Z"/></g></g></svg>