<svg xmlns="http://www.w3.org/2000/svg" xmlns:xlink="http://www.w3.org/1999/xlink" viewBox="0 0 175.34 33.88"><defs><style>.cls-1{font-size:19.48px;fill:#f2f2f2;}.cls-1,.cls-2{font-family:Verdana-Bold, Verdana;font-weight:700;}.cls-2{font-size:9.82px;fill:#999;}.cls-3{stroke:#fff;stroke-linecap:round;stroke-linejoin:round;fill:url(#linear-gradient);}</style><linearGradient id="linear-gradient" x1="21.61" y1="33.38" x2="21.61" y2="0.5" gradientUnits="userSpaceOnUse"><stop offset="0" stop-color="#15a0ff"/><stop offset="0.19" stop-color="#179ff6"/><stop offset="0.51" stop-color="#1d9ddc"/><stop offset="0.57" stop-color="#1e9cd7"/><stop offset="0.87" stop-color="#0075be"/><stop offset="0.99" stop-color="#005b97"/></linearGradient></defs><title>Asset 9logo</title><g id="Layer_2" data-name="Layer 2"><g id="Layer_1-2" data-name="Layer 1"><text class="cls-1" transform="translate(49.03 17.5)">TEAM G-32 </text><text class="cls-2" transform="translate(50.68 30.61)">PROGATE DTS 2020</text><path class="cls-3" d="M42.73,26.11H30.3l4.92-3.5c5.46-3.73,7.19-7,7.19-11.11,0-5.95-4.92-10.23-11.92-10.23a15.36,15.36,0,0,0-6.07,1.2,29.94,29.94,0,0,0-4.65-1.32A28.61,28.61,0,0,0,13.71.5,23.22,23.22,0,0,0,8.47,1,13.15,13.15,0,0,0,4.76,2.41,7.05,7.05,0,0,0,2.17,4.93a7,7,0,0,0-.84,3.48A7.36,7.36,0,0,0,3,13.1a7.22,7.22,0,0,0,4.3,2.64V16A11.55,11.55,0,0,0,5,16.63a7.22,7.22,0,0,0-2.2,1.3A7.05,7.05,0,0,0,1.11,20,7.08,7.08,0,0,0,.5,23.16a9.86,9.86,0,0,0,.88,4.16,8.62,8.62,0,0,0,2.7,3.3,13.1,13.1,0,0,0,4.19,2.05,21,21,0,0,0,5.84.71,36.75,36.75,0,0,0,4.95-.31H42.73Zm-24.34.64v.09a13.56,13.56,0,0,1-2.8.33,20,20,0,0,1-2.67-.2,5.81,5.81,0,0,1-2.44-.88A4.38,4.38,0,0,1,9.23,24.8a4.15,4.15,0,0,1-.46-2.17A3.22,3.22,0,0,1,9.4,20.5a3.51,3.51,0,0,1,1.68-1.07,8.85,8.85,0,0,1,2.5-.37l2.71,0H18V13.39h-1.8c-1.1,0-2.08,0-2.93-.11a7.18,7.18,0,0,1-2.16-.48,3.19,3.19,0,0,1-1.4-1.08,3.4,3.4,0,0,1-.46-2,2.33,2.33,0,0,1,.48-1.53A3.58,3.58,0,0,1,11,7.3a6.4,6.4,0,0,1,1.95-.5,16.51,16.51,0,0,1,1.93-.13,14.86,14.86,0,0,1,3.36.46c-.09.1-.17.18-.25.28l4.86,4.82c2.37-2.5,4.55-3.91,7.46-3.91,2.28,0,4.14,1.37,4.14,3.5,0,1.91-1,3.64-4.5,6.28Z"/></g></g></svg>